<?xml version="1.0" encoding="UTF-8"?>
<svg id="Layer_1" xmlns="http://www.w3.org/2000/svg" version="1.1" viewBox="0 0 194.7 230.6">
  <!-- Generator: Adobe Illustrator 29.4.0, SVG Export Plug-In . SVG Version: 2.1.0 Build 152)  -->
  <defs>
    <style>
      .st0 {
        fill: #615fff;
      }
    </style>
  </defs>
  <path class="st0" d="M93.6,55.8c-7.1,6-14.7-6-7.7-10.3,6.7-4.2,13.8,5.2,7.7,10.3Z"/>
  <path class="st0" d="M101.2,129.1c-10.2.6-22.4,5.5-26.9,15.3-5.8,12.6,2.2,21.5,12,28.3,15.4,10.6,35,17.4,52.8,23.2,1,.3,3.7,2.4,4.4,1.3,1.5-2.4.1-9.1-.4-12-2.5-14-9.5-25.4-17.9-36.5-.3-2.3,6.7-5.8,8.1-7.5l5,5.7c5.6,8.4,10.9,17.2,13.9,26.9,2.6,1.8,22.8-5.1,24.9-9.2.5-1.7-3-3.1-4.2-4.1-3.7-3.6-8.2-8.4-11.5-12.3-9.3-11.1-15.6-24.5-27.9-32.8-7.8-5.2-29.8-14.2-38.8-12.8-8,3.9-15.8,8.1-23.2,13-1-.2-6.4-7.1-6.6-8.2s2.4-3.1,3.4-3.9c6-4.2,17-9.7,23.8-12.5,15.1-6.2,34.7-6.9,40.4-25.4,4.1-13.3-2.9-22.6-16-24.8.1-2.2,2.2-3.3,3.3-4.9,2.9-4.1,7.5-11.3,7.5-16.3,0-4.6-4.4-9.4-8.7-10.4l-.3-1.4c3.1-2.1,4.2-6.7,8.1-7.6,8.7,4.8,14.3,12.6,11.9,23-.6,2.6-6,10.4-5.9,11.1,18.1,12,15.9,35.6,2,50.2-5,5.3-9.4,6.8-15.4,10.1-.7.4-1,0-.7,1.3,5.9,1.4,13,4.6,18.2,7.6,22.5,13.3,29.2,38.2,48.8,52.1,2.6,1.9,6.4,2.6,8.9,4.1.5.3.8,0,.8,1,0,.6-3.2,5.7-3.8,6.5-7.9,10.6-23,17.2-36,18.2.1,9,.6,18.1-3.4,26.4l-17-4.9c-1.2,1.6,4.1,10.2,4.5,12.5h38.5v11.3H25.8v-11.3h35.7l18.7-37.6c-8.2-6-15.1-12.7-19.2-22.2-8,1-16,.3-23.2-3.5-6.7-3.5-13.4-12.5-15.1-20-5.6-24.5,11.4-45.5,31.3-57.2,4.8-2.8,10.8-4.4,15.3-7.3.6-.4,1,0,.7-1.3l-25.1-2.2c-7.7,6.3-11,15.9-12.9,25.4-14.7-2.7-27-12.4-30.9-27.2C-5.3,41.8,16.9,13.2,42.8,20c4.9,1.3,4.5,2.4,7.5,4.6,2.1,1.5,39.8,4.5,46,5.3,1.8.2,3.6,1.6,5.6,1.1,2.9-3.1,7.3-9.1,1-10.8-1.4-1.8,6.5-7.6,6.9-9.6h1.2c3.2,1.8,7.4,5,8.5,8.6,2.7,9-6.4,18.1-12.4,23.7-8.4-.2-16.8-2.1-25.3-2.8-1.6.5-3.6,10.2-3.8,12.1-.3,4.5.1,15.7,6.7,14.1,4.6-1.1,13.4-5.6,16.2-9.3,2.4-3.1-.2-3.1,5.7-3.9,1.4-.2,6.6-1,7,.4,1,3.1-4.9,11.6-7.2,13.8-10.3,9.8-25.3,11.5-37.8,17.1-18.6,8.3-42,28.2-33.8,51.3,3.4,9.5,15,14.6,24.5,12,3-.8,2.4-4.2,3.5-6.7,4.7-10.7,13.3-18.1,24.5-21.4,2.7-.8,9.9-2.4,12.4-2.3.7,0,.9.2,1.3.7v11h0ZM39.2,56.4c3.2-4.4,7.4-13.2,6.1-18.5-1.6-7-8.4-8.1-14.5-6.5-10.6,2.7-19.1,14.2-19.3,25-.1,8.1,4.2,18.2,12.1,21.2,2.4-4.2,4.5-8.6,7.5-12.4,1.9-2.6,6.2-6.1,8-8.7h0ZM68.8,39l-11.3-1.2c0,3.6-.8,8-1.9,11.5-.4,1.5-3.4,6.8-2.1,7.5l12.5.8c-.2-6.4,1.3-12.6,2.8-18.7ZM74.5,219.3h51.3l.6-1.2-7.7-16.8c-9.5-4.2-19.1-8-28-13.2l-16.2,31.1h0Z"/>
</svg>