<?xml version="1.0" encoding="UTF-8"?>
<svg id="Layer_1" data-name="Layer 1" xmlns="http://www.w3.org/2000/svg" viewBox="0 0 194.73 230.58">
  <defs>
    <style>
      .cls-1 {
        fill: #4f39f6;
      }
    </style>
  </defs>
  <path class="cls-1" d="M93.6,55.82c-7.07,5.95-14.69-5.97-7.73-10.27,6.73-4.16,13.77,5.19,7.73,10.27Z"/>
  <path class="cls-1" d="M101.15,129.12c-10.23.64-22.44,5.47-26.93,15.29-5.76,12.61,2.16,21.49,12.01,28.26,15.37,10.56,34.99,17.42,52.79,23.17,1.04.34,3.69,2.38,4.36,1.3,1.51-2.42.1-9.05-.44-12.03-2.5-14-9.53-25.37-17.86-36.53-.34-2.3,6.71-5.75,8.12-7.53l5.03,5.7c5.62,8.42,10.88,17.17,13.9,26.91,2.57,1.83,22.8-5.06,24.91-9.21.47-1.73-3.04-3.05-4.18-4.15-3.68-3.55-8.25-8.36-11.54-12.27-9.33-11.08-15.57-24.49-27.89-32.76-7.76-5.21-29.76-14.16-38.76-12.75-7.97,3.95-15.75,8.11-23.2,12.96-1.01-.17-6.38-7.05-6.61-8.22s2.36-3.14,3.45-3.89c5.97-4.16,16.98-9.71,23.77-12.51,15.12-6.23,34.65-6.94,40.39-25.36,4.15-13.32-2.9-22.63-16.02-24.81.11-2.18,2.16-3.3,3.3-4.91,2.93-4.14,7.47-11.27,7.46-16.34-.01-4.57-4.41-9.38-8.72-10.44l-.3-1.42c3.11-2.06,4.15-6.65,8.08-7.57,8.73,4.81,14.35,12.63,11.93,23.05-.6,2.57-5.97,10.35-5.91,11.1,18.11,11.98,15.89,35.59,2.03,50.2-5.02,5.29-9.45,6.77-15.44,10.06-.65.36-.96-.03-.73,1.26,5.86,1.44,12.95,4.55,18.16,7.64,22.48,13.34,29.24,38.2,48.76,52.13,2.63,1.88,6.35,2.61,8.9,4.12.53.31.79.04.76,1.01-.02.55-3.21,5.73-3.77,6.49-7.86,10.61-23.04,17.2-35.96,18.17.12,9.03.56,18.06-3.38,26.41l-17.02-4.87c-1.17,1.63,4.14,10.19,4.53,12.47h38.54v11.34H25.76v-11.34h35.71l18.66-37.64c-8.21-5.98-15.12-12.67-19.2-22.18-8.04,1.01-15.95.32-23.19-3.46-6.69-3.49-13.42-12.53-15.12-20.03-5.56-24.52,11.38-45.52,31.29-57.18,4.8-2.81,10.84-4.42,15.33-7.32.55-.36,1.01.06.73-1.27l-25.11-2.15c-7.69,6.3-11.04,15.86-12.88,25.37-14.7-2.66-26.96-12.36-30.86-27.21C-5.29,41.83,16.87,13.22,42.76,20.01c4.9,1.29,4.46,2.42,7.54,4.64,2.07,1.49,39.85,4.49,45.98,5.32,1.81.24,3.55,1.56,5.59,1.11,2.87-3.14,7.34-9.06.97-10.79-1.36-1.84,6.53-7.59,6.87-9.55l1.21.03c3.19,1.73,7.41,4.94,8.48,8.55,2.66,9.03-6.43,18.13-12.43,23.65-8.43-.24-16.79-2.14-25.28-2.78-1.63.5-3.63,10.15-3.78,12.14-.33,4.47.14,15.68,6.68,14.07,4.57-1.12,13.36-5.58,16.24-9.28,2.44-3.14-.19-3.11,5.7-3.93,1.45-.2,6.62-.95,7.03.36.96,3.09-4.86,11.59-7.2,13.8-10.28,9.75-25.3,11.51-37.75,17.07-18.59,8.31-42.05,28.22-33.81,51.25,3.4,9.5,15.04,14.56,24.55,12.04,2.98-.79,2.43-4.19,3.53-6.67,4.73-10.66,13.29-18.13,24.53-21.38,2.74-.79,9.86-2.39,12.45-2.32.7.02.87.21,1.28.74v11.05ZM39.19,56.4c3.17-4.39,7.38-13.16,6.13-18.54-1.62-6.99-8.43-8.08-14.49-6.54-10.58,2.7-19.07,14.15-19.27,25-.14,8.05,4.24,18.22,12.15,21.19,2.44-4.15,4.55-8.55,7.46-12.42,1.93-2.56,6.16-6.14,8.01-8.69ZM68.82,39.02l-11.32-1.16c0,3.62-.85,7.95-1.86,11.46-.42,1.46-3.39,6.77-2.13,7.55l12.5.83c-.22-6.38,1.29-12.58,2.81-18.68ZM74.51,219.25h51.3l.61-1.16-7.65-16.75c-9.47-4.19-19.1-8-28.05-13.24l-16.21,31.14Z"/>
</svg>